<?xml version="1.0" standalone="no"?>
<!DOCTYPE svg PUBLIC "-//W3C//DTD SVG 20010904//EN"
 "http://www.w3.org/TR/2001/REC-SVG-20010904/DTD/svg10.dtd">
<svg version="1.0" xmlns="http://www.w3.org/2000/svg"
 width="96.000000pt" height="96.000000pt" viewBox="0 0 96.000000 96.000000"
 preserveAspectRatio="xMidYMid meet">
<metadata>
Created by potrace 1.11, written by Peter Selinger 2001-2013
</metadata>
<g transform="translate(0.000000,96.000000) scale(0.100000,-0.100000)"
fill="#000000" stroke="none">
<path d="M144 813 l-25 -27 3 -311 c3 -292 4 -313 22 -331 18 -18 39 -19 320
-22 166 -2 311 0 323 3 49 12 53 41 53 355 0 314 -4 341 -52 354 -13 3 -157 6
-321 6 l-298 0 -25 -27z m616 -373 l0 -240 -280 0 -280 0 0 240 0 240 280 0
280 0 0 -240z"/>
<path d="M335 505 c-27 -29 -51 -57 -52 -62 -2 -5 25 -38 59 -72 l62 -62 17
23 c17 22 16 23 -22 62 -21 23 -39 44 -39 48 0 5 18 24 40 44 38 35 40 38 24
55 -10 11 -22 19 -28 18 -6 -1 -33 -25 -61 -54z"/>
<path d="M536 545 c-18 -14 -17 -17 27 -61 l46 -46 -45 -43 c-42 -39 -44 -43
-29 -58 9 -10 20 -17 25 -17 10 0 120 110 120 120 0 10 -110 120 -119 120 -3
0 -15 -7 -25 -15z"/>
</g>
</svg>
